<?xml version="1.0" standalone="no"?>
<!DOCTYPE svg PUBLIC "-//W3C//DTD SVG 20010904//EN"
 "http://www.w3.org/TR/2001/REC-SVG-20010904/DTD/svg10.dtd">
<svg version="1.0" xmlns="http://www.w3.org/2000/svg"
 width="380.000000pt" height="215.000000pt" viewBox="0 0 380.000000 215.000000"
 preserveAspectRatio="xMidYMid meet">

<g transform="translate(0.000000,215.000000) scale(0.100000,-0.100000)"
fill="#000000" stroke="none">
<path d="M922 2050 c-78 -11 -195 -43 -272 -74 -71 -29 -206 -116 -274 -177
-120 -107 -236 -306 -282 -484 -23 -91 -25 -113 -21 -250 5 -163 15 -214 72
-353 82 -201 253 -385 450 -484 58 -29 190 -78 211 -78 11 0 14 21 14 109 l0
109 -37 13 c-290 93 -503 392 -503 703 0 340 229 642 555 731 82 23 246 30
331 16 135 -24 277 -97 386 -199 l48 -45 75 68 c41 37 75 70 75 75 0 17 -143
141 -209 180 -189 112 -428 166 -619 140z"/>
<path d="M2647 2050 c-100 -12 -159 -27 -245 -60 -229 -88 -430 -278 -532
-505 -60 -133 -78 -215 -85 -392 -5 -156 -36 -269 -105 -384 -52 -87 -153
-196 -231 -248 -115 -77 -329 -139 -441 -128 l-48 4 0 -110 0 -110 113 6 c362
21 664 218 828 538 60 118 84 227 98 440 15 220 59 335 189 488 125 147 345
250 535 251 l68 0 -3 108 -3 107 -35 1 c-19 1 -65 -2 -103 -6z"/>
<path d="M2960 1922 l0 -110 38 -13 c289 -93 502 -395 502 -708 0 -130 -21
-216 -79 -336 -85 -173 -235 -308 -416 -374 -161 -58 -322 -60 -493 -6 -114
36 -195 89 -300 192 l-93 93 -80 -62 c-43 -34 -79 -65 -79 -69 0 -15 154 -170
213 -215 82 -61 243 -139 341 -164 170 -43 360 -36 531 21 164 55 259 113 383
233 l72 70 0 -107 0 -107 106 0 105 0 -3 508 c-4 497 -4 508 -27 582 -48 156
-167 350 -274 448 -102 93 -303 203 -414 227 l-33 7 0 -110z"/>
</g>
</svg>
